# xmcd CD database file
#
# Track frame offsets:
#	150
#	19429
#	37277
#	78377
#	101452
#	120270
#	136786
#	156107
#	175767
#	194831
#	208437
#	231254
#
# Disc length: 3429 seconds
#
# Revision: 3
# Processed by: cddbd v1.5.1PL0 Copyright (c) Steve Scherf et al.
# Submitted via: CDex 1.51
#
DISCID=a80d630c
DTITLE=Flying W Wranglers - Live In Concert With The Colorado Springs Philharmonic
DYEAR=2003
DGENRE=Country
TTITLE0=Hoedown from Rodeo
TTITLE1=My Adobe Hacienda
TTITLE2=Medley: Shenandoah, Along the Santa Fe Trail, Colorado Sky, Shenandoah
TTITLE3=Tumbling Tumbleweeds
TTITLE4=Irish Medley: O'Dee's Jig, Fishers Hornpipe
TTITLE5=They Call The Wind Maria
TTITLE6=Night Riders Lament
TTITLE7=The Devil Went Down To Georgia
TTITLE8=Along The Cimarron
TTITLE9=God Bless The USA
TTITLE10=Orange Blossom Special
TTITLE11=Rawhide
EXTD=YEAR: 2003
EXTT0=
EXTT1=
EXTT2=
EXTT3=
EXTT4=
EXTT5=
EXTT6=
EXTT7=
EXTT8=
EXTT9=
EXTT10=
EXTT11=
PLAYORDER=
